# xmcd CD database file
#
# Track frame offsets:
#	150
#	17728
#	39872
#	60662
#	82734
#	106391
#	120801
#	135201
#	156659
#	178649
#
# Disc length: 2672 seconds
#
# Revision: 0
# Processed by: cddbd v1.5PL3 Copyright (c) Steve Scherf et al.
# Submitted via: CDex 1.50
#
DISCID=6c0a6e0a
DTITLE=TranceVision - Lemuria
DYEAR=2003
DGENRE=New Age
TTITLE0=Enertia
TTITLE1=Eden
TTITLE2=Alpha
TTITLE3=Nebula
TTITLE4=Free Me
TTITLE5=Fone Sexxx
TTITLE6=Phantom
TTITLE7=Lemuria
TTITLE8=Atom (instrumental mix)
TTITLE9=Atom (meditation mix)
EXTD=YEAR: 2003
EXTT0=
EXTT1=
EXTT2=
EXTT3=
EXTT4=
EXTT5=
EXTT6=
EXTT7=
EXTT8=
EXTT9=
PLAYORDER=
